<mxfile host="65bd71144e">
    <diagram id="mpK-jW6pGtBx1OoPMD7t" name="ServerSDK">
        <mxGraphModel dx="1074" dy="790" grid="1" gridSize="10" guides="1" tooltips="1" connect="1" arrows="1" fold="1" page="1" pageScale="1" pageWidth="850" pageHeight="1100" math="0" shadow="0">
            <root>
                <mxCell id="0"/>
                <mxCell id="1" parent="0"/>
                <mxCell id="2" value="Client A" style="rounded=0;whiteSpace=wrap;html=1;" parent="1" vertex="1">
                    <mxGeometry x="70" y="70" width="120" height="60" as="geometry"/>
                </mxCell>
                <mxCell id="3" value="Server" style="rounded=0;whiteSpace=wrap;html=1;" parent="1" vertex="1">
                    <mxGeometry x="480" y="70" width="120" height="60" as="geometry"/>
                </mxCell>
                <mxCell id="4" value="Client B" style="rounded=0;whiteSpace=wrap;html=1;" parent="1" vertex="1">
                    <mxGeometry x="685" y="70" width="120" height="60" as="geometry"/>
                </mxCell>
                <mxCell id="5" value="" style="endArrow=none;dashed=1;html=1;dashPattern=1 3;strokeWidth=2;entryX=0.5;entryY=1;entryDx=0;entryDy=0;startArrow=none;" parent="1" target="2" edge="1">
                    <mxGeometry width="50" height="50" relative="1" as="geometry">
                        <mxPoint x="130" y="160" as="sourcePoint"/>
                        <mxPoint x="210" y="290" as="targetPoint"/>
                    </mxGeometry>
                </mxCell>
                <mxCell id="6" value="" style="endArrow=none;dashed=1;html=1;dashPattern=1 3;strokeWidth=2;entryX=0.5;entryY=1;entryDx=0;entryDy=0;startArrow=none;" parent="1" source="wz0Tx5kWhO18PUsWTQd2-83" edge="1">
                    <mxGeometry width="50" height="50" relative="1" as="geometry">
                        <mxPoint x="745" y="830" as="sourcePoint"/>
                        <mxPoint x="744.5" y="130" as="targetPoint"/>
                    </mxGeometry>
                </mxCell>
                <mxCell id="7" value="" style="endArrow=none;dashed=1;html=1;dashPattern=1 3;strokeWidth=2;entryX=0.5;entryY=1;entryDx=0;entryDy=0;startArrow=none;" parent="1" target="3" edge="1">
                    <mxGeometry width="50" height="50" relative="1" as="geometry">
                        <mxPoint x="540" y="140" as="sourcePoint"/>
                        <mxPoint x="514.5" y="130" as="targetPoint"/>
                    </mxGeometry>
                </mxCell>
                <mxCell id="27" value="" style="endArrow=none;dashed=1;html=1;dashPattern=1 3;strokeWidth=2;entryX=0.5;entryY=1;entryDx=0;entryDy=0;startArrow=none;" parent="1" source="48" edge="1">
                    <mxGeometry width="50" height="50" relative="1" as="geometry">
                        <mxPoint x="130" y="840" as="sourcePoint"/>
                        <mxPoint x="130" y="360" as="targetPoint"/>
                    </mxGeometry>
                </mxCell>
                <mxCell id="30" value="" style="rounded=0;whiteSpace=wrap;html=1;" parent="1" vertex="1">
                    <mxGeometry x="535" y="360" width="10" height="40" as="geometry"/>
                </mxCell>
                <mxCell id="31" value="" style="endArrow=none;dashed=1;html=1;dashPattern=1 3;strokeWidth=2;entryX=0.5;entryY=1;entryDx=0;entryDy=0;startArrow=none;" parent="1" source="35" target="30" edge="1">
                    <mxGeometry width="50" height="50" relative="1" as="geometry">
                        <mxPoint x="539.5" y="520" as="sourcePoint"/>
                        <mxPoint x="540" y="320" as="targetPoint"/>
                    </mxGeometry>
                </mxCell>
                <mxCell id="33" value="" style="endArrow=classic;html=1;exitX=1;exitY=0.5;exitDx=0;exitDy=0;entryX=1;entryY=0;entryDx=0;entryDy=0;" parent="1" source="30" target="35" edge="1">
                    <mxGeometry width="50" height="50" relative="1" as="geometry">
                        <mxPoint x="315" y="450" as="sourcePoint"/>
                        <mxPoint x="540" y="420" as="targetPoint"/>
                        <Array as="points">
                            <mxPoint x="585" y="380"/>
                            <mxPoint x="585" y="420"/>
                        </Array>
                    </mxGeometry>
                </mxCell>
                <mxCell id="35" value="" style="rounded=0;whiteSpace=wrap;html=1;" parent="1" vertex="1">
                    <mxGeometry x="535" y="420" width="10" height="40" as="geometry"/>
                </mxCell>
                <mxCell id="36" value="" style="endArrow=none;dashed=1;html=1;dashPattern=1 3;strokeWidth=2;entryX=0.5;entryY=1;entryDx=0;entryDy=0;startArrow=none;" parent="1" target="35" edge="1">
                    <mxGeometry width="50" height="50" relative="1" as="geometry">
                        <mxPoint x="540" y="560" as="sourcePoint"/>
                        <mxPoint x="540" y="400" as="targetPoint"/>
                    </mxGeometry>
                </mxCell>
                <mxCell id="37" value="" style="endArrow=classic;html=1;exitX=0.75;exitY=1;exitDx=0;exitDy=0;entryX=0;entryY=0;entryDx=0;entryDy=0;" parent="1" edge="1" target="KDJ9Bbkwa6fpk_9x9rx5-83" source="35">
                    <mxGeometry width="50" height="50" relative="1" as="geometry">
                        <mxPoint x="360" y="460" as="sourcePoint"/>
                        <mxPoint x="780" y="460" as="targetPoint"/>
                    </mxGeometry>
                </mxCell>
                <mxCell id="38" value="Send Offer" style="text;html=1;align=center;verticalAlign=middle;resizable=0;points=[];autosize=1;strokeColor=none;fillColor=none;" parent="1" vertex="1">
                    <mxGeometry x="615" y="440" width="70" height="20" as="geometry"/>
                </mxCell>
                <mxCell id="40" value="" style="endArrow=classic;html=1;exitX=1;exitY=0.5;exitDx=0;exitDy=0;entryX=1;entryY=0;entryDx=0;entryDy=0;" parent="1" edge="1">
                    <mxGeometry width="50" height="50" relative="1" as="geometry">
                        <mxPoint x="750" y="480" as="sourcePoint"/>
                        <mxPoint x="750" y="520" as="targetPoint"/>
                        <Array as="points">
                            <mxPoint x="790" y="480"/>
                            <mxPoint x="790" y="520"/>
                        </Array>
                    </mxGeometry>
                </mxCell>
                <mxCell id="43" value="Receive Offer" style="text;html=1;align=center;verticalAlign=middle;resizable=0;points=[];autosize=1;strokeColor=none;fillColor=none;" parent="1" vertex="1">
                    <mxGeometry x="760" y="460" width="90" height="20" as="geometry"/>
                </mxCell>
                <mxCell id="46" value="" style="endArrow=none;dashed=1;html=1;dashPattern=1 3;strokeWidth=2;startArrow=none;" parent="1" source="51" edge="1">
                    <mxGeometry width="50" height="50" relative="1" as="geometry">
                        <mxPoint x="540" y="710" as="sourcePoint"/>
                        <mxPoint x="540" y="560" as="targetPoint"/>
                    </mxGeometry>
                </mxCell>
                <mxCell id="50" value="" style="endArrow=classic;html=1;entryX=0;entryY=0;entryDx=0;entryDy=0;exitX=1.014;exitY=0.435;exitDx=0;exitDy=0;exitPerimeter=0;" parent="1" target="KDJ9Bbkwa6fpk_9x9rx5-119" edge="1" source="48">
                    <mxGeometry width="50" height="50" relative="1" as="geometry">
                        <mxPoint x="140" y="620" as="sourcePoint"/>
                        <mxPoint x="320" y="620" as="targetPoint"/>
                    </mxGeometry>
                </mxCell>
                <mxCell id="51" value="tricke" style="rounded=0;whiteSpace=wrap;html=1;" parent="1" vertex="1">
                    <mxGeometry x="505" y="680" width="70" height="140" as="geometry"/>
                </mxCell>
                <mxCell id="52" value="" style="endArrow=none;dashed=1;html=1;dashPattern=1 3;strokeWidth=2;entryX=0.5;entryY=1;entryDx=0;entryDy=0;startArrow=none;" parent="1" source="75" target="51" edge="1">
                    <mxGeometry width="50" height="50" relative="1" as="geometry">
                        <mxPoint x="540" y="1000" as="sourcePoint"/>
                        <mxPoint x="540" y="590" as="targetPoint"/>
                    </mxGeometry>
                </mxCell>
                <mxCell id="53" value="Send IP public(A)" style="text;html=1;align=center;verticalAlign=middle;resizable=0;points=[];autosize=1;strokeColor=none;fillColor=none;" parent="1" vertex="1">
                    <mxGeometry x="170" y="580" width="110" height="20" as="geometry"/>
                </mxCell>
                <mxCell id="55" value="Send Candidate" style="text;html=1;align=center;verticalAlign=middle;resizable=0;points=[];autosize=1;strokeColor=none;fillColor=none;" parent="1" vertex="1">
                    <mxGeometry x="615" y="680" width="100" height="20" as="geometry"/>
                </mxCell>
                <mxCell id="57" value="" style="endArrow=none;dashed=1;html=1;dashPattern=1 3;strokeWidth=2;entryX=0.5;entryY=1;entryDx=0;entryDy=0;" parent="1" edge="1">
                    <mxGeometry width="50" height="50" relative="1" as="geometry">
                        <mxPoint x="745" y="750" as="sourcePoint"/>
                        <mxPoint x="745" y="760" as="targetPoint"/>
                    </mxGeometry>
                </mxCell>
                <mxCell id="59" value="" style="endArrow=classic;html=1;exitX=1;exitY=0.25;exitDx=0;exitDy=0;entryX=1;entryY=0.75;entryDx=0;entryDy=0;" parent="1" source="58" edge="1" target="58">
                    <mxGeometry width="50" height="50" relative="1" as="geometry">
                        <mxPoint x="750" y="739.9999999999999" as="sourcePoint"/>
                        <mxPoint x="750" y="779.9999999999999" as="targetPoint"/>
                        <Array as="points">
                            <mxPoint x="775" y="710"/>
                            <mxPoint x="775" y="730"/>
                        </Array>
                    </mxGeometry>
                </mxCell>
                <mxCell id="60" value="" style="rounded=0;whiteSpace=wrap;html=1;" parent="1" vertex="1">
                    <mxGeometry x="740" y="860" width="10" height="40" as="geometry"/>
                </mxCell>
                <mxCell id="61" value="" style="endArrow=none;dashed=1;html=1;dashPattern=1 3;strokeWidth=2;entryX=0.5;entryY=1;entryDx=0;entryDy=0;startArrow=none;" parent="1" target="60" edge="1">
                    <mxGeometry width="50" height="50" relative="1" as="geometry">
                        <mxPoint x="745" y="990" as="sourcePoint"/>
                        <mxPoint x="744.5" y="200" as="targetPoint"/>
                    </mxGeometry>
                </mxCell>
                <mxCell id="62" value="Receive Candidate" style="text;html=1;align=center;verticalAlign=middle;resizable=0;points=[];autosize=1;strokeColor=none;fillColor=none;" parent="1" vertex="1">
                    <mxGeometry x="740" y="680" width="120" height="20" as="geometry"/>
                </mxCell>
                <mxCell id="64" value="Send Candidate" style="text;html=1;align=center;verticalAlign=middle;resizable=0;points=[];autosize=1;strokeColor=none;fillColor=none;" parent="1" vertex="1">
                    <mxGeometry x="620" y="740" width="100" height="20" as="geometry"/>
                </mxCell>
                <mxCell id="65" value="" style="endArrow=classic;html=1;entryX=1;entryY=0;entryDx=0;entryDy=0;exitX=0.003;exitY=0.575;exitDx=0;exitDy=0;exitPerimeter=0;" parent="1" source="51" target="66" edge="1">
                    <mxGeometry width="50" height="50" relative="1" as="geometry">
                        <mxPoint x="500" y="760" as="sourcePoint"/>
                        <mxPoint x="130" y="750" as="targetPoint"/>
                    </mxGeometry>
                </mxCell>
                <mxCell id="66" value="" style="rounded=0;whiteSpace=wrap;html=1;" parent="1" vertex="1">
                    <mxGeometry x="125" y="760" width="10" height="50" as="geometry"/>
                </mxCell>
                <mxCell id="67" value="" style="endArrow=none;dashed=1;html=1;dashPattern=1 3;strokeWidth=2;entryX=0.5;entryY=1;entryDx=0;entryDy=0;startArrow=none;" parent="1" target="66" edge="1" source="72">
                    <mxGeometry width="50" height="50" relative="1" as="geometry">
                        <mxPoint x="130" y="990" as="sourcePoint"/>
                        <mxPoint x="130" y="360" as="targetPoint"/>
                    </mxGeometry>
                </mxCell>
                <mxCell id="58" value="" style="rounded=0;whiteSpace=wrap;html=1;" parent="1" vertex="1">
                    <mxGeometry x="740" y="700" width="10" height="40" as="geometry"/>
                </mxCell>
                <mxCell id="68" value="" style="endArrow=none;dashed=1;html=1;dashPattern=1 3;strokeWidth=2;entryX=0.5;entryY=1;entryDx=0;entryDy=0;startArrow=none;" parent="1" source="60" target="58" edge="1">
                    <mxGeometry width="50" height="50" relative="1" as="geometry">
                        <mxPoint x="744.9833333333333" y="780" as="sourcePoint"/>
                        <mxPoint x="744.5" y="200" as="targetPoint"/>
                    </mxGeometry>
                </mxCell>
                <mxCell id="69" value="Send Cadidate" style="text;html=1;align=center;verticalAlign=middle;resizable=0;points=[];autosize=1;strokeColor=none;fillColor=none;" parent="1" vertex="1">
                    <mxGeometry x="235" y="690" width="90" height="20" as="geometry"/>
                </mxCell>
                <mxCell id="71" value="" style="endArrow=classic;html=1;exitX=1;exitY=0.5;exitDx=0;exitDy=0;entryX=1.114;entryY=0.861;entryDx=0;entryDy=0;entryPerimeter=0;" parent="1" source="66" edge="1" target="66">
                    <mxGeometry width="50" height="50" relative="1" as="geometry">
                        <mxPoint x="135" y="770" as="sourcePoint"/>
                        <mxPoint x="135" y="810" as="targetPoint"/>
                        <Array as="points">
                            <mxPoint x="160" y="785"/>
                            <mxPoint x="160" y="803"/>
                        </Array>
                    </mxGeometry>
                </mxCell>
                <mxCell id="75" value="Established" style="rounded=0;whiteSpace=wrap;html=1;" parent="1" vertex="1">
                    <mxGeometry x="505" y="850" width="70" height="130" as="geometry"/>
                </mxCell>
                <mxCell id="76" value="" style="endArrow=none;dashed=1;html=1;dashPattern=1 3;strokeWidth=2;entryX=0.5;entryY=1;entryDx=0;entryDy=0;" parent="1" target="75" edge="1">
                    <mxGeometry width="50" height="50" relative="1" as="geometry">
                        <mxPoint x="540" y="1000" as="sourcePoint"/>
                        <mxPoint x="540" y="750" as="targetPoint"/>
                    </mxGeometry>
                </mxCell>
                <mxCell id="81" value="" style="endArrow=classic;html=1;exitX=1;exitY=0.25;exitDx=0;exitDy=0;entryX=1;entryY=0.75;entryDx=0;entryDy=0;" parent="1" source="60" edge="1" target="60">
                    <mxGeometry width="50" height="50" relative="1" as="geometry">
                        <mxPoint x="750" y="820" as="sourcePoint"/>
                        <mxPoint x="750" y="890" as="targetPoint"/>
                        <Array as="points">
                            <mxPoint x="770" y="870"/>
                            <mxPoint x="770" y="890"/>
                        </Array>
                    </mxGeometry>
                </mxCell>
                <mxCell id="wz0Tx5kWhO18PUsWTQd2-82" value="" style="endArrow=classic;html=1;exitX=0.5;exitY=0;exitDx=0;exitDy=0;entryX=1.18;entryY=0.653;entryDx=0;entryDy=0;entryPerimeter=0;" parent="1" source="wz0Tx5kWhO18PUsWTQd2-83" edge="1">
                    <mxGeometry width="50" height="50" relative="1" as="geometry">
                        <mxPoint x="500" y="205" as="sourcePoint"/>
                        <mxPoint x="546.8" y="159.59000000000003" as="targetPoint"/>
                    </mxGeometry>
                </mxCell>
                <mxCell id="wz0Tx5kWhO18PUsWTQd2-83" value="" style="rounded=0;whiteSpace=wrap;html=1;" parent="1" vertex="1">
                    <mxGeometry x="740" y="160" width="10" height="40" as="geometry"/>
                </mxCell>
                <mxCell id="wz0Tx5kWhO18PUsWTQd2-84" value="" style="endArrow=none;dashed=1;html=1;dashPattern=1 3;strokeWidth=2;entryX=0.5;entryY=1;entryDx=0;entryDy=0;startArrow=none;" parent="1" target="wz0Tx5kWhO18PUsWTQd2-83" edge="1">
                    <mxGeometry width="50" height="50" relative="1" as="geometry">
                        <mxPoint x="745" y="630" as="sourcePoint"/>
                        <mxPoint x="744.5" y="130" as="targetPoint"/>
                    </mxGeometry>
                </mxCell>
                <mxCell id="KDJ9Bbkwa6fpk_9x9rx5-83" value="" style="rounded=0;whiteSpace=wrap;html=1;" vertex="1" parent="1">
                    <mxGeometry x="740" y="460" width="10" height="40" as="geometry"/>
                </mxCell>
                <mxCell id="KDJ9Bbkwa6fpk_9x9rx5-84" value="" style="rounded=0;whiteSpace=wrap;html=1;" vertex="1" parent="1">
                    <mxGeometry x="740" y="520" width="10" height="110" as="geometry"/>
                </mxCell>
                <mxCell id="KDJ9Bbkwa6fpk_9x9rx5-85" value="Turn Server" style="rounded=0;whiteSpace=wrap;html=1;" vertex="1" parent="1">
                    <mxGeometry x="270" y="70" width="120" height="60" as="geometry"/>
                </mxCell>
                <mxCell id="KDJ9Bbkwa6fpk_9x9rx5-86" value="" style="endArrow=none;dashed=1;html=1;dashPattern=1 3;strokeWidth=2;entryX=0.5;entryY=1;entryDx=0;entryDy=0;startArrow=none;" edge="1" parent="1" source="KDJ9Bbkwa6fpk_9x9rx5-119" target="KDJ9Bbkwa6fpk_9x9rx5-85">
                    <mxGeometry width="50" height="50" relative="1" as="geometry">
                        <mxPoint x="330" y="1000" as="sourcePoint"/>
                        <mxPoint x="350" y="470" as="targetPoint"/>
                    </mxGeometry>
                </mxCell>
                <mxCell id="KDJ9Bbkwa6fpk_9x9rx5-92" value="" style="rounded=0;whiteSpace=wrap;html=1;" vertex="1" parent="1">
                    <mxGeometry x="125" y="160" width="10" height="40" as="geometry"/>
                </mxCell>
                <mxCell id="KDJ9Bbkwa6fpk_9x9rx5-93" value="" style="endArrow=none;dashed=1;html=1;dashPattern=1 3;strokeWidth=2;entryX=0.5;entryY=1;entryDx=0;entryDy=0;startArrow=none;" edge="1" parent="1" source="KDJ9Bbkwa6fpk_9x9rx5-104" target="KDJ9Bbkwa6fpk_9x9rx5-92">
                    <mxGeometry width="50" height="50" relative="1" as="geometry">
                        <mxPoint x="130" y="520" as="sourcePoint"/>
                        <mxPoint x="130" y="130" as="targetPoint"/>
                    </mxGeometry>
                </mxCell>
                <mxCell id="KDJ9Bbkwa6fpk_9x9rx5-94" value="" style="endArrow=classic;html=1;exitX=0.25;exitY=1;exitDx=0;exitDy=0;entryX=0;entryY=0;entryDx=0;entryDy=0;" edge="1" parent="1" source="KDJ9Bbkwa6fpk_9x9rx5-92" target="KDJ9Bbkwa6fpk_9x9rx5-95">
                    <mxGeometry width="50" height="50" relative="1" as="geometry">
                        <mxPoint x="210" y="300" as="sourcePoint"/>
                        <mxPoint x="340" y="200" as="targetPoint"/>
                    </mxGeometry>
                </mxCell>
                <mxCell id="KDJ9Bbkwa6fpk_9x9rx5-95" value="" style="rounded=0;whiteSpace=wrap;html=1;" vertex="1" parent="1">
                    <mxGeometry x="535" y="200" width="10" height="40" as="geometry"/>
                </mxCell>
                <mxCell id="KDJ9Bbkwa6fpk_9x9rx5-96" value="" style="endArrow=none;dashed=1;html=1;dashPattern=1 3;strokeWidth=2;entryX=0.5;entryY=1;entryDx=0;entryDy=0;startArrow=none;" edge="1" parent="1" source="KDJ9Bbkwa6fpk_9x9rx5-102" target="KDJ9Bbkwa6fpk_9x9rx5-95">
                    <mxGeometry width="50" height="50" relative="1" as="geometry">
                        <mxPoint x="539.5" y="520" as="sourcePoint"/>
                        <mxPoint x="539.5" y="130" as="targetPoint"/>
                    </mxGeometry>
                </mxCell>
                <mxCell id="KDJ9Bbkwa6fpk_9x9rx5-97" value="" style="endArrow=classic;html=1;startArrow=none;entryX=1;entryY=0;entryDx=0;entryDy=0;" edge="1" parent="1" target="KDJ9Bbkwa6fpk_9x9rx5-99">
                    <mxGeometry width="50" height="50" relative="1" as="geometry">
                        <mxPoint x="220" y="240" as="sourcePoint"/>
                        <mxPoint x="150" y="240" as="targetPoint"/>
                    </mxGeometry>
                </mxCell>
                <mxCell id="KDJ9Bbkwa6fpk_9x9rx5-99" value="" style="rounded=0;whiteSpace=wrap;html=1;" vertex="1" parent="1">
                    <mxGeometry x="125" y="240" width="10" height="40" as="geometry"/>
                </mxCell>
                <mxCell id="KDJ9Bbkwa6fpk_9x9rx5-100" value="" style="endArrow=classic;html=1;exitX=0.5;exitY=1;exitDx=0;exitDy=0;entryX=0;entryY=0;entryDx=0;entryDy=0;" edge="1" parent="1" source="KDJ9Bbkwa6fpk_9x9rx5-99" target="KDJ9Bbkwa6fpk_9x9rx5-102">
                    <mxGeometry width="50" height="50" relative="1" as="geometry">
                        <mxPoint x="160" y="370" as="sourcePoint"/>
                        <mxPoint x="360" y="280" as="targetPoint"/>
                    </mxGeometry>
                </mxCell>
                <mxCell id="KDJ9Bbkwa6fpk_9x9rx5-101" value="" style="endArrow=classic;html=1;exitX=0.25;exitY=1;exitDx=0;exitDy=0;entryX=1;entryY=0;entryDx=0;entryDy=0;" edge="1" parent="1" source="KDJ9Bbkwa6fpk_9x9rx5-102" target="KDJ9Bbkwa6fpk_9x9rx5-104">
                    <mxGeometry width="50" height="50" relative="1" as="geometry">
                        <mxPoint x="370" y="340" as="sourcePoint"/>
                        <mxPoint x="130" y="320" as="targetPoint"/>
                    </mxGeometry>
                </mxCell>
                <mxCell id="KDJ9Bbkwa6fpk_9x9rx5-102" value="" style="rounded=0;whiteSpace=wrap;html=1;" vertex="1" parent="1">
                    <mxGeometry x="535" y="280" width="10" height="40" as="geometry"/>
                </mxCell>
                <mxCell id="KDJ9Bbkwa6fpk_9x9rx5-103" value="" style="endArrow=none;dashed=1;html=1;dashPattern=1 3;strokeWidth=2;entryX=0.5;entryY=1;entryDx=0;entryDy=0;startArrow=none;" edge="1" parent="1" target="KDJ9Bbkwa6fpk_9x9rx5-102">
                    <mxGeometry width="50" height="50" relative="1" as="geometry">
                        <mxPoint x="540" y="360" as="sourcePoint"/>
                        <mxPoint x="540" y="240" as="targetPoint"/>
                    </mxGeometry>
                </mxCell>
                <mxCell id="KDJ9Bbkwa6fpk_9x9rx5-104" value="" style="rounded=0;whiteSpace=wrap;html=1;" vertex="1" parent="1">
                    <mxGeometry x="125" y="320" width="10" height="40" as="geometry"/>
                </mxCell>
                <mxCell id="KDJ9Bbkwa6fpk_9x9rx5-105" value="Custom Permissons (add Grant)" style="text;html=1;align=center;verticalAlign=middle;resizable=0;points=[];autosize=1;strokeColor=none;fillColor=none;" vertex="1" parent="1">
                    <mxGeometry x="250" y="320" width="190" height="20" as="geometry"/>
                </mxCell>
                <mxCell id="KDJ9Bbkwa6fpk_9x9rx5-106" value="" style="endArrow=classic;html=1;exitX=0.5;exitY=1;exitDx=0;exitDy=0;entryX=0;entryY=0;entryDx=0;entryDy=0;" edge="1" parent="1" source="KDJ9Bbkwa6fpk_9x9rx5-104">
                    <mxGeometry width="50" height="50" relative="1" as="geometry">
                        <mxPoint x="145" y="400" as="sourcePoint"/>
                        <mxPoint x="535" y="360" as="targetPoint"/>
                    </mxGeometry>
                </mxCell>
                <mxCell id="KDJ9Bbkwa6fpk_9x9rx5-107" value="Subscriber PeerConnection" style="text;html=1;align=center;verticalAlign=middle;resizable=0;points=[];autosize=1;strokeColor=none;fillColor=none;" vertex="1" parent="1">
                    <mxGeometry x="550" y="360" width="160" height="20" as="geometry"/>
                </mxCell>
                <mxCell id="KDJ9Bbkwa6fpk_9x9rx5-108" value="" style="endArrow=classic;html=1;exitX=0.5;exitY=0;exitDx=0;exitDy=0;entryX=-0.06;entryY=0.653;entryDx=0;entryDy=0;entryPerimeter=0;" edge="1" parent="1" source="KDJ9Bbkwa6fpk_9x9rx5-92" target="KDJ9Bbkwa6fpk_9x9rx5-110">
                    <mxGeometry width="50" height="50" relative="1" as="geometry">
                        <mxPoint x="490" y="230" as="sourcePoint"/>
                        <mxPoint x="360" y="160" as="targetPoint"/>
                    </mxGeometry>
                </mxCell>
                <mxCell id="KDJ9Bbkwa6fpk_9x9rx5-109" value="connect" style="text;html=1;align=center;verticalAlign=middle;resizable=0;points=[];autosize=1;strokeColor=none;fillColor=none;" vertex="1" parent="1">
                    <mxGeometry x="600" y="140" width="60" height="20" as="geometry"/>
                </mxCell>
                <mxCell id="KDJ9Bbkwa6fpk_9x9rx5-110" value="" style="rounded=0;whiteSpace=wrap;html=1;" vertex="1" parent="1">
                    <mxGeometry x="535" y="140" width="10" height="30" as="geometry"/>
                </mxCell>
                <mxCell id="KDJ9Bbkwa6fpk_9x9rx5-111" value="" style="endArrow=none;dashed=1;html=1;dashPattern=1 3;strokeWidth=2;entryX=0.5;entryY=1;entryDx=0;entryDy=0;startArrow=none;" edge="1" parent="1" source="KDJ9Bbkwa6fpk_9x9rx5-95" target="KDJ9Bbkwa6fpk_9x9rx5-110">
                    <mxGeometry width="50" height="50" relative="1" as="geometry">
                        <mxPoint x="540" y="200" as="sourcePoint"/>
                        <mxPoint x="540" y="130" as="targetPoint"/>
                    </mxGeometry>
                </mxCell>
                <mxCell id="KDJ9Bbkwa6fpk_9x9rx5-112" value="Request Token" style="text;html=1;align=center;verticalAlign=middle;resizable=0;points=[];autosize=1;strokeColor=none;fillColor=none;" vertex="1" parent="1">
                    <mxGeometry x="280" y="180" width="100" height="20" as="geometry"/>
                </mxCell>
                <mxCell id="KDJ9Bbkwa6fpk_9x9rx5-113" value="token exp default (6h)" style="text;html=1;align=center;verticalAlign=middle;resizable=0;points=[];autosize=1;strokeColor=none;fillColor=none;" vertex="1" parent="1">
                    <mxGeometry x="265" y="240" width="130" height="20" as="geometry"/>
                </mxCell>
                <mxCell id="KDJ9Bbkwa6fpk_9x9rx5-114" value="Create Room(token)" style="text;html=1;align=center;verticalAlign=middle;resizable=0;points=[];autosize=1;strokeColor=none;fillColor=none;" vertex="1" parent="1">
                    <mxGeometry x="280" y="280" width="120" height="20" as="geometry"/>
                </mxCell>
                <mxCell id="KDJ9Bbkwa6fpk_9x9rx5-115" value="Send Offer" style="text;html=1;align=center;verticalAlign=middle;resizable=0;points=[];autosize=1;strokeColor=none;fillColor=none;" vertex="1" parent="1">
                    <mxGeometry x="305" y="360" width="70" height="20" as="geometry"/>
                </mxCell>
                <mxCell id="KDJ9Bbkwa6fpk_9x9rx5-116" value="connect" style="text;html=1;align=center;verticalAlign=middle;resizable=0;points=[];autosize=1;strokeColor=none;fillColor=none;" vertex="1" parent="1">
                    <mxGeometry x="350" y="140" width="60" height="20" as="geometry"/>
                </mxCell>
                <mxCell id="KDJ9Bbkwa6fpk_9x9rx5-98" value="Genarate Token (Api Key, Api Secret)" style="text;html=1;align=center;verticalAlign=middle;resizable=0;points=[];autosize=1;strokeColor=none;fillColor=none;" vertex="1" parent="1">
                    <mxGeometry x="225" y="220" width="210" height="20" as="geometry"/>
                </mxCell>
                <mxCell id="KDJ9Bbkwa6fpk_9x9rx5-117" value="" style="endArrow=none;html=1;exitX=0.25;exitY=1;exitDx=0;exitDy=0;entryX=1.003;entryY=1.021;entryDx=0;entryDy=0;entryPerimeter=0;" edge="1" parent="1" source="KDJ9Bbkwa6fpk_9x9rx5-95" target="KDJ9Bbkwa6fpk_9x9rx5-98">
                    <mxGeometry width="50" height="50" relative="1" as="geometry">
                        <mxPoint x="537.5" y="240" as="sourcePoint"/>
                        <mxPoint x="460" y="240" as="targetPoint"/>
                    </mxGeometry>
                </mxCell>
                <mxCell id="KDJ9Bbkwa6fpk_9x9rx5-119" value="" style="rounded=0;whiteSpace=wrap;html=1;" vertex="1" parent="1">
                    <mxGeometry x="325" y="600" width="10" height="40" as="geometry"/>
                </mxCell>
                <mxCell id="KDJ9Bbkwa6fpk_9x9rx5-120" value="" style="endArrow=none;dashed=1;html=1;dashPattern=1 3;strokeWidth=2;entryX=0.5;entryY=1;entryDx=0;entryDy=0;" edge="1" parent="1" target="KDJ9Bbkwa6fpk_9x9rx5-119">
                    <mxGeometry width="50" height="50" relative="1" as="geometry">
                        <mxPoint x="330" y="1000" as="sourcePoint"/>
                        <mxPoint x="330" y="130" as="targetPoint"/>
                    </mxGeometry>
                </mxCell>
                <mxCell id="KDJ9Bbkwa6fpk_9x9rx5-121" value="" style="endArrow=classic;html=1;exitX=1;exitY=0.25;exitDx=0;exitDy=0;entryX=0.067;entryY=0.82;entryDx=0;entryDy=0;entryPerimeter=0;" edge="1" parent="1" source="KDJ9Bbkwa6fpk_9x9rx5-119" target="KDJ9Bbkwa6fpk_9x9rx5-84">
                    <mxGeometry width="50" height="50" relative="1" as="geometry">
                        <mxPoint x="335" y="629.2" as="sourcePoint"/>
                        <mxPoint x="780" y="610" as="targetPoint"/>
                    </mxGeometry>
                </mxCell>
                <mxCell id="KDJ9Bbkwa6fpk_9x9rx5-124" value="" style="endArrow=none;dashed=1;html=1;dashPattern=1 3;strokeWidth=2;entryX=0.5;entryY=1;entryDx=0;entryDy=0;startArrow=none;" edge="1" parent="1" source="58">
                    <mxGeometry width="50" height="50" relative="1" as="geometry">
                        <mxPoint x="745" y="690" as="sourcePoint"/>
                        <mxPoint x="745" y="650" as="targetPoint"/>
                    </mxGeometry>
                </mxCell>
                <mxCell id="KDJ9Bbkwa6fpk_9x9rx5-125" value="" style="endArrow=classic;html=1;exitX=0;exitY=1;exitDx=0;exitDy=0;entryX=1;entryY=0.75;entryDx=0;entryDy=0;" edge="1" parent="1" source="KDJ9Bbkwa6fpk_9x9rx5-84" target="KDJ9Bbkwa6fpk_9x9rx5-119">
                    <mxGeometry width="50" height="50" relative="1" as="geometry">
                        <mxPoint x="787.5" y="650" as="sourcePoint"/>
                        <mxPoint x="340" y="650" as="targetPoint"/>
                    </mxGeometry>
                </mxCell>
                <mxCell id="KDJ9Bbkwa6fpk_9x9rx5-126" value="" style="endArrow=classic;html=1;exitX=0;exitY=1;exitDx=0;exitDy=0;entryX=1;entryY=1;entryDx=0;entryDy=0;" edge="1" parent="1" source="KDJ9Bbkwa6fpk_9x9rx5-119" target="48">
                    <mxGeometry width="50" height="50" relative="1" as="geometry">
                        <mxPoint x="545" y="600" as="sourcePoint"/>
                        <mxPoint x="140" y="660" as="targetPoint"/>
                    </mxGeometry>
                </mxCell>
                <mxCell id="KDJ9Bbkwa6fpk_9x9rx5-127" value="Send IP public (A)" style="text;html=1;align=center;verticalAlign=middle;resizable=0;points=[];autosize=1;strokeColor=none;fillColor=none;" vertex="1" parent="1">
                    <mxGeometry x="400" y="590" width="110" height="20" as="geometry"/>
                </mxCell>
                <mxCell id="KDJ9Bbkwa6fpk_9x9rx5-128" value="Send IP public(B)" style="text;html=1;align=center;verticalAlign=middle;resizable=0;points=[];autosize=1;strokeColor=none;fillColor=none;" vertex="1" parent="1">
                    <mxGeometry x="545" y="630" width="110" height="20" as="geometry"/>
                </mxCell>
                <mxCell id="KDJ9Bbkwa6fpk_9x9rx5-129" value="Send IP public(B)" style="text;html=1;align=center;verticalAlign=middle;resizable=0;points=[];autosize=1;strokeColor=none;fillColor=none;" vertex="1" parent="1">
                    <mxGeometry x="170" y="640" width="110" height="20" as="geometry"/>
                </mxCell>
                <mxCell id="KDJ9Bbkwa6fpk_9x9rx5-131" value="" style="endArrow=classic;html=1;exitX=0.75;exitY=0;exitDx=0;exitDy=0;" edge="1" parent="1" source="KDJ9Bbkwa6fpk_9x9rx5-130">
                    <mxGeometry width="50" height="50" relative="1" as="geometry">
                        <mxPoint x="145.1400000000001" y="700.21" as="sourcePoint"/>
                        <mxPoint x="500" y="690" as="targetPoint"/>
                    </mxGeometry>
                </mxCell>
                <mxCell id="KDJ9Bbkwa6fpk_9x9rx5-130" value="" style="rounded=0;whiteSpace=wrap;html=1;" vertex="1" parent="1">
                    <mxGeometry x="125" y="690" width="10" height="30" as="geometry"/>
                </mxCell>
                <mxCell id="KDJ9Bbkwa6fpk_9x9rx5-132" value="" style="endArrow=none;dashed=1;html=1;dashPattern=1 3;strokeWidth=2;entryX=0.5;entryY=1;entryDx=0;entryDy=0;startArrow=none;" edge="1" parent="1" source="66" target="KDJ9Bbkwa6fpk_9x9rx5-130">
                    <mxGeometry width="50" height="50" relative="1" as="geometry">
                        <mxPoint x="130" y="760" as="sourcePoint"/>
                        <mxPoint x="130" y="360" as="targetPoint"/>
                    </mxGeometry>
                </mxCell>
                <mxCell id="48" value="" style="rounded=0;whiteSpace=wrap;html=1;" parent="1" vertex="1">
                    <mxGeometry x="125" y="570" width="10" height="70" as="geometry"/>
                </mxCell>
                <mxCell id="KDJ9Bbkwa6fpk_9x9rx5-134" value="" style="endArrow=none;dashed=1;html=1;dashPattern=1 3;strokeWidth=2;entryX=0.5;entryY=1;entryDx=0;entryDy=0;startArrow=none;" edge="1" parent="1" source="KDJ9Bbkwa6fpk_9x9rx5-130" target="48">
                    <mxGeometry width="50" height="50" relative="1" as="geometry">
                        <mxPoint x="130" y="690" as="sourcePoint"/>
                        <mxPoint x="130" y="360" as="targetPoint"/>
                    </mxGeometry>
                </mxCell>
                <mxCell id="KDJ9Bbkwa6fpk_9x9rx5-136" value="" style="endArrow=classic;html=1;exitX=1;exitY=0.145;exitDx=0;exitDy=0;exitPerimeter=0;entryX=0;entryY=0;entryDx=0;entryDy=0;" edge="1" parent="1" source="51" target="58">
                    <mxGeometry width="50" height="50" relative="1" as="geometry">
                        <mxPoint x="345" y="620" as="sourcePoint"/>
                        <mxPoint x="780" y="700" as="targetPoint"/>
                    </mxGeometry>
                </mxCell>
                <mxCell id="KDJ9Bbkwa6fpk_9x9rx5-137" value="" style="endArrow=classic;html=1;exitX=0;exitY=1;exitDx=0;exitDy=0;entryX=1.018;entryY=0.419;entryDx=0;entryDy=0;entryPerimeter=0;" edge="1" parent="1" source="58" target="51">
                    <mxGeometry width="50" height="50" relative="1" as="geometry">
                        <mxPoint x="795" y="639.9999999999998" as="sourcePoint"/>
                        <mxPoint x="345" y="640" as="targetPoint"/>
                    </mxGeometry>
                </mxCell>
                <mxCell id="KDJ9Bbkwa6fpk_9x9rx5-138" value="Send Cadidate" style="text;html=1;align=center;verticalAlign=middle;resizable=0;points=[];autosize=1;strokeColor=none;fillColor=none;" vertex="1" parent="1">
                    <mxGeometry x="325" y="760" width="90" height="20" as="geometry"/>
                </mxCell>
                <mxCell id="KDJ9Bbkwa6fpk_9x9rx5-139" value="Receive Candidate" style="text;html=1;align=center;verticalAlign=middle;resizable=0;points=[];autosize=1;strokeColor=none;fillColor=none;" vertex="1" parent="1">
                    <mxGeometry x="160" y="780" width="120" height="20" as="geometry"/>
                </mxCell>
                <mxCell id="KDJ9Bbkwa6fpk_9x9rx5-140" value="" style="endArrow=classic;html=1;exitX=0.75;exitY=0;exitDx=0;exitDy=0;entryX=0;entryY=0;entryDx=0;entryDy=0;" edge="1" parent="1" source="72" target="75">
                    <mxGeometry width="50" height="50" relative="1" as="geometry">
                        <mxPoint x="142.5000000000001" y="700" as="sourcePoint"/>
                        <mxPoint x="490" y="850" as="targetPoint"/>
                    </mxGeometry>
                </mxCell>
                <mxCell id="72" value="" style="rounded=0;whiteSpace=wrap;html=1;" parent="1" vertex="1">
                    <mxGeometry x="125" y="850" width="10" height="60" as="geometry"/>
                </mxCell>
                <mxCell id="KDJ9Bbkwa6fpk_9x9rx5-141" value="" style="endArrow=none;dashed=1;html=1;dashPattern=1 3;strokeWidth=2;entryX=0.5;entryY=1;entryDx=0;entryDy=0;" edge="1" parent="1" target="72">
                    <mxGeometry width="50" height="50" relative="1" as="geometry">
                        <mxPoint x="130.0000000000001" y="990" as="sourcePoint"/>
                        <mxPoint x="130.0000000000001" y="810" as="targetPoint"/>
                    </mxGeometry>
                </mxCell>
                <mxCell id="KDJ9Bbkwa6fpk_9x9rx5-143" value="Send Answer" style="text;html=1;align=center;verticalAlign=middle;resizable=0;points=[];autosize=1;strokeColor=none;fillColor=none;" vertex="1" parent="1">
                    <mxGeometry x="250" y="830" width="90" height="20" as="geometry"/>
                </mxCell>
                <mxCell id="KDJ9Bbkwa6fpk_9x9rx5-145" value="" style="endArrow=classic;html=1;exitX=1.002;exitY=0.063;exitDx=0;exitDy=0;exitPerimeter=0;entryX=0;entryY=0;entryDx=0;entryDy=0;" edge="1" parent="1" source="75" target="60">
                    <mxGeometry width="50" height="50" relative="1" as="geometry">
                        <mxPoint x="585" y="710.3" as="sourcePoint"/>
                        <mxPoint x="750" y="710" as="targetPoint"/>
                    </mxGeometry>
                </mxCell>
                <mxCell id="KDJ9Bbkwa6fpk_9x9rx5-146" value="" style="endArrow=classic;html=1;exitX=0;exitY=1;exitDx=0;exitDy=0;entryX=1.036;entryY=0.381;entryDx=0;entryDy=0;entryPerimeter=0;" edge="1" parent="1" source="60" target="75">
                    <mxGeometry width="50" height="50" relative="1" as="geometry">
                        <mxPoint x="740" y="891.34" as="sourcePoint"/>
                        <mxPoint x="576" y="890" as="targetPoint"/>
                    </mxGeometry>
                </mxCell>
                <mxCell id="KDJ9Bbkwa6fpk_9x9rx5-147" value="Send Answer" style="text;html=1;align=center;verticalAlign=middle;resizable=0;points=[];autosize=1;strokeColor=none;fillColor=none;" vertex="1" parent="1">
                    <mxGeometry x="605" y="840" width="90" height="20" as="geometry"/>
                </mxCell>
                <mxCell id="KDJ9Bbkwa6fpk_9x9rx5-148" value="Send Answer" style="text;html=1;align=center;verticalAlign=middle;resizable=0;points=[];autosize=1;strokeColor=none;fillColor=none;" vertex="1" parent="1">
                    <mxGeometry x="615" y="900" width="90" height="20" as="geometry"/>
                </mxCell>
                <mxCell id="KDJ9Bbkwa6fpk_9x9rx5-149" value="Receive Answer" style="text;html=1;align=center;verticalAlign=middle;resizable=0;points=[];autosize=1;strokeColor=none;fillColor=none;" vertex="1" parent="1">
                    <mxGeometry x="745" y="850" width="100" height="20" as="geometry"/>
                </mxCell>
                <mxCell id="KDJ9Bbkwa6fpk_9x9rx5-151" value="" style="endArrow=classic;html=1;exitX=0.003;exitY=0.462;exitDx=0;exitDy=0;entryX=1;entryY=1;entryDx=0;entryDy=0;exitPerimeter=0;" edge="1" parent="1" source="75" target="72">
                    <mxGeometry width="50" height="50" relative="1" as="geometry">
                        <mxPoint x="750" y="910" as="sourcePoint"/>
                        <mxPoint x="587.52" y="909.53" as="targetPoint"/>
                    </mxGeometry>
                </mxCell>
                <mxCell id="KDJ9Bbkwa6fpk_9x9rx5-152" value="Response Answer" style="text;html=1;align=center;verticalAlign=middle;resizable=0;points=[];autosize=1;strokeColor=none;fillColor=none;" vertex="1" parent="1">
                    <mxGeometry x="240" y="890" width="110" height="20" as="geometry"/>
                </mxCell>
            </root>
        </mxGraphModel>
    </diagram>
    <diagram id="81z0ksTy88FnZCzdZ3dD" name="Method">
        <mxGraphModel dx="1074" dy="790" grid="1" gridSize="10" guides="1" tooltips="1" connect="1" arrows="1" fold="1" page="1" pageScale="1" pageWidth="850" pageHeight="1100" math="0" shadow="0">
            <root>
                <mxCell id="RgUU7Jsw3HFdRPl-sW22-0"/>
                <mxCell id="RgUU7Jsw3HFdRPl-sW22-1" parent="RgUU7Jsw3HFdRPl-sW22-0"/>
                <mxCell id="RgUU7Jsw3HFdRPl-sW22-2" value="Server" style="rounded=0;whiteSpace=wrap;html=1;" parent="RgUU7Jsw3HFdRPl-sW22-1" vertex="1">
                    <mxGeometry x="80" y="260" width="120" height="60" as="geometry"/>
                </mxCell>
                <mxCell id="RgUU7Jsw3HFdRPl-sW22-3" value="Access Token" style="rounded=0;whiteSpace=wrap;html=1;" parent="RgUU7Jsw3HFdRPl-sW22-1" vertex="1">
                    <mxGeometry x="280" y="40" width="120" height="60" as="geometry"/>
                </mxCell>
                <mxCell id="RgUU7Jsw3HFdRPl-sW22-4" value="Room Service Client" style="rounded=0;whiteSpace=wrap;html=1;" parent="RgUU7Jsw3HFdRPl-sW22-1" vertex="1">
                    <mxGeometry x="280" y="200" width="120" height="60" as="geometry"/>
                </mxCell>
                <mxCell id="RgUU7Jsw3HFdRPl-sW22-5" value="TokenVerifier" style="rounded=0;whiteSpace=wrap;html=1;" parent="RgUU7Jsw3HFdRPl-sW22-1" vertex="1">
                    <mxGeometry x="280" y="340" width="120" height="60" as="geometry"/>
                </mxCell>
                <mxCell id="RgUU7Jsw3HFdRPl-sW22-6" value="webHookReceiver" style="rounded=0;whiteSpace=wrap;html=1;" parent="RgUU7Jsw3HFdRPl-sW22-1" vertex="1">
                    <mxGeometry x="280" y="470" width="120" height="60" as="geometry"/>
                </mxCell>
                <mxCell id="RgUU7Jsw3HFdRPl-sW22-7" value="" style="endArrow=classic;html=1;exitX=1;exitY=0.5;exitDx=0;exitDy=0;entryX=0;entryY=0.5;entryDx=0;entryDy=0;" parent="RgUU7Jsw3HFdRPl-sW22-1" source="RgUU7Jsw3HFdRPl-sW22-2" target="RgUU7Jsw3HFdRPl-sW22-3" edge="1">
                    <mxGeometry width="50" height="50" relative="1" as="geometry">
                        <mxPoint x="190" y="430" as="sourcePoint"/>
                        <mxPoint x="240" y="380" as="targetPoint"/>
                    </mxGeometry>
                </mxCell>
                <mxCell id="RgUU7Jsw3HFdRPl-sW22-8" value="" style="endArrow=classic;html=1;entryX=0;entryY=0.5;entryDx=0;entryDy=0;" parent="RgUU7Jsw3HFdRPl-sW22-1" target="RgUU7Jsw3HFdRPl-sW22-4" edge="1">
                    <mxGeometry width="50" height="50" relative="1" as="geometry">
                        <mxPoint x="200" y="290" as="sourcePoint"/>
                        <mxPoint x="290" y="130" as="targetPoint"/>
                    </mxGeometry>
                </mxCell>
                <mxCell id="RgUU7Jsw3HFdRPl-sW22-9" value="" style="endArrow=classic;html=1;entryX=0;entryY=0.5;entryDx=0;entryDy=0;exitX=1;exitY=0.5;exitDx=0;exitDy=0;" parent="RgUU7Jsw3HFdRPl-sW22-1" source="RgUU7Jsw3HFdRPl-sW22-2" target="RgUU7Jsw3HFdRPl-sW22-5" edge="1">
                    <mxGeometry width="50" height="50" relative="1" as="geometry">
                        <mxPoint x="210" y="290" as="sourcePoint"/>
                        <mxPoint x="290" y="240" as="targetPoint"/>
                    </mxGeometry>
                </mxCell>
                <mxCell id="RgUU7Jsw3HFdRPl-sW22-10" value="" style="endArrow=classic;html=1;exitX=1.017;exitY=0.63;exitDx=0;exitDy=0;exitPerimeter=0;entryX=0;entryY=0.5;entryDx=0;entryDy=0;" parent="RgUU7Jsw3HFdRPl-sW22-1" source="RgUU7Jsw3HFdRPl-sW22-2" target="RgUU7Jsw3HFdRPl-sW22-6" edge="1">
                    <mxGeometry width="50" height="50" relative="1" as="geometry">
                        <mxPoint x="160" y="530" as="sourcePoint"/>
                        <mxPoint x="210" y="480" as="targetPoint"/>
                    </mxGeometry>
                </mxCell>
                <mxCell id="RgUU7Jsw3HFdRPl-sW22-13" value="" style="endArrow=classic;html=1;exitX=1;exitY=0.5;exitDx=0;exitDy=0;entryX=0;entryY=0.5;entryDx=0;entryDy=0;startArrow=none;" parent="RgUU7Jsw3HFdRPl-sW22-1" source="RgUU7Jsw3HFdRPl-sW22-22" target="RgUU7Jsw3HFdRPl-sW22-14" edge="1">
                    <mxGeometry width="50" height="50" relative="1" as="geometry">
                        <mxPoint x="530" y="260" as="sourcePoint"/>
                        <mxPoint x="480" y="80" as="targetPoint"/>
                    </mxGeometry>
                </mxCell>
                <mxCell id="RgUU7Jsw3HFdRPl-sW22-14" value="Api Key, Api Secrect" style="rounded=0;whiteSpace=wrap;html=1;" parent="RgUU7Jsw3HFdRPl-sW22-1" vertex="1">
                    <mxGeometry x="540" y="10" width="180" height="30" as="geometry"/>
                </mxCell>
                <mxCell id="RgUU7Jsw3HFdRPl-sW22-15" value="Add Grant()" style="rounded=0;whiteSpace=wrap;html=1;" parent="RgUU7Jsw3HFdRPl-sW22-1" vertex="1">
                    <mxGeometry x="540" y="55" width="180" height="30" as="geometry"/>
                </mxCell>
                <mxCell id="RgUU7Jsw3HFdRPl-sW22-16" value="" style="endArrow=classic;html=1;exitX=1;exitY=0.5;exitDx=0;exitDy=0;entryX=0;entryY=0.5;entryDx=0;entryDy=0;startArrow=none;" parent="RgUU7Jsw3HFdRPl-sW22-1" source="RgUU7Jsw3HFdRPl-sW22-23" target="RgUU7Jsw3HFdRPl-sW22-15" edge="1">
                    <mxGeometry width="50" height="50" relative="1" as="geometry">
                        <mxPoint x="410" y="130" as="sourcePoint"/>
                        <mxPoint x="490" y="60" as="targetPoint"/>
                    </mxGeometry>
                </mxCell>
                <mxCell id="RgUU7Jsw3HFdRPl-sW22-17" value="( identify, ttl)" style="rounded=0;whiteSpace=wrap;html=1;" parent="RgUU7Jsw3HFdRPl-sW22-1" vertex="1">
                    <mxGeometry x="537.5" y="100" width="182.5" height="30" as="geometry"/>
                </mxCell>
                <mxCell id="RgUU7Jsw3HFdRPl-sW22-18" value="" style="endArrow=classic;html=1;exitX=1;exitY=0.5;exitDx=0;exitDy=0;entryX=0;entryY=0.5;entryDx=0;entryDy=0;startArrow=none;" parent="RgUU7Jsw3HFdRPl-sW22-1" source="RgUU7Jsw3HFdRPl-sW22-24" target="RgUU7Jsw3HFdRPl-sW22-17" edge="1">
                    <mxGeometry width="50" height="50" relative="1" as="geometry">
                        <mxPoint x="410" y="80" as="sourcePoint"/>
                        <mxPoint x="485" y="75" as="targetPoint"/>
                    </mxGeometry>
                </mxCell>
                <mxCell id="RgUU7Jsw3HFdRPl-sW22-19" value="Api Key, Api Secrect" style="rounded=0;whiteSpace=wrap;html=1;" parent="RgUU7Jsw3HFdRPl-sW22-1" vertex="1">
                    <mxGeometry x="540" y="190" width="180" height="30" as="geometry"/>
                </mxCell>
                <mxCell id="RgUU7Jsw3HFdRPl-sW22-20" value="" style="endArrow=classic;html=1;exitX=1;exitY=0.5;exitDx=0;exitDy=0;entryX=0;entryY=0.5;entryDx=0;entryDy=0;startArrow=none;" parent="RgUU7Jsw3HFdRPl-sW22-1" source="RgUU7Jsw3HFdRPl-sW22-21" target="RgUU7Jsw3HFdRPl-sW22-19" edge="1">
                    <mxGeometry width="50" height="50" relative="1" as="geometry">
                        <mxPoint x="410" y="80" as="sourcePoint"/>
                        <mxPoint x="480" y="25" as="targetPoint"/>
                    </mxGeometry>
                </mxCell>
                <mxCell id="RgUU7Jsw3HFdRPl-sW22-23" value="methods" style="text;html=1;align=center;verticalAlign=middle;resizable=0;points=[];autosize=1;strokeColor=none;fillColor=none;" parent="RgUU7Jsw3HFdRPl-sW22-1" vertex="1">
                    <mxGeometry x="435" y="60" width="60" height="20" as="geometry"/>
                </mxCell>
                <mxCell id="RgUU7Jsw3HFdRPl-sW22-25" value="" style="endArrow=none;html=1;exitX=1;exitY=0.5;exitDx=0;exitDy=0;entryX=0;entryY=0.5;entryDx=0;entryDy=0;" parent="RgUU7Jsw3HFdRPl-sW22-1" source="RgUU7Jsw3HFdRPl-sW22-3" target="RgUU7Jsw3HFdRPl-sW22-23" edge="1">
                    <mxGeometry width="50" height="50" relative="1" as="geometry">
                        <mxPoint x="400.0000000000001" y="70" as="sourcePoint"/>
                        <mxPoint x="540" y="70" as="targetPoint"/>
                    </mxGeometry>
                </mxCell>
                <mxCell id="RgUU7Jsw3HFdRPl-sW22-22" value="generate" style="text;html=1;align=center;verticalAlign=middle;resizable=0;points=[];autosize=1;strokeColor=none;fillColor=none;" parent="RgUU7Jsw3HFdRPl-sW22-1" vertex="1">
                    <mxGeometry x="435" y="15" width="60" height="20" as="geometry"/>
                </mxCell>
                <mxCell id="RgUU7Jsw3HFdRPl-sW22-26" value="" style="endArrow=none;html=1;exitX=1;exitY=0.5;exitDx=0;exitDy=0;entryX=0;entryY=0.5;entryDx=0;entryDy=0;" parent="RgUU7Jsw3HFdRPl-sW22-1" source="RgUU7Jsw3HFdRPl-sW22-3" target="RgUU7Jsw3HFdRPl-sW22-22" edge="1">
                    <mxGeometry width="50" height="50" relative="1" as="geometry">
                        <mxPoint x="400.0000000000001" y="70" as="sourcePoint"/>
                        <mxPoint x="540" y="25" as="targetPoint"/>
                    </mxGeometry>
                </mxCell>
                <mxCell id="RgUU7Jsw3HFdRPl-sW22-24" value="&lt;span style=&quot;color: rgb(240 , 240 , 240) ; font-family: &amp;#34;helvetica&amp;#34; ; font-size: 12px ; font-style: normal ; font-weight: 400 ; letter-spacing: normal ; text-align: center ; text-indent: 0px ; text-transform: none ; word-spacing: 0px ; background-color: rgb(42 , 42 , 42) ; display: inline ; float: none&quot;&gt;propertices&lt;/span&gt;" style="text;whiteSpace=wrap;html=1;" parent="RgUU7Jsw3HFdRPl-sW22-1" vertex="1">
                    <mxGeometry x="435" y="100" width="65" height="30" as="geometry"/>
                </mxCell>
                <mxCell id="RgUU7Jsw3HFdRPl-sW22-27" value="" style="endArrow=none;html=1;exitX=1;exitY=0.5;exitDx=0;exitDy=0;entryX=0;entryY=0.5;entryDx=0;entryDy=0;" parent="RgUU7Jsw3HFdRPl-sW22-1" source="RgUU7Jsw3HFdRPl-sW22-3" target="RgUU7Jsw3HFdRPl-sW22-24" edge="1">
                    <mxGeometry width="50" height="50" relative="1" as="geometry">
                        <mxPoint x="400.0000000000001" y="70" as="sourcePoint"/>
                        <mxPoint x="537.5" y="115" as="targetPoint"/>
                    </mxGeometry>
                </mxCell>
                <mxCell id="RgUU7Jsw3HFdRPl-sW22-28" value="createRoom(), deleteRoom(), getParticipant(), listParticipant(), listRooms(),..." style="rounded=0;whiteSpace=wrap;html=1;" parent="RgUU7Jsw3HFdRPl-sW22-1" vertex="1">
                    <mxGeometry x="540" y="240" width="180" height="60" as="geometry"/>
                </mxCell>
                <mxCell id="RgUU7Jsw3HFdRPl-sW22-29" value="" style="endArrow=classic;html=1;entryX=0;entryY=0.5;entryDx=0;entryDy=0;startArrow=none;" parent="RgUU7Jsw3HFdRPl-sW22-1" source="RgUU7Jsw3HFdRPl-sW22-31" target="RgUU7Jsw3HFdRPl-sW22-28" edge="1">
                    <mxGeometry width="50" height="50" relative="1" as="geometry">
                        <mxPoint x="400" y="230" as="sourcePoint"/>
                        <mxPoint x="550" y="215" as="targetPoint"/>
                    </mxGeometry>
                </mxCell>
                <mxCell id="RgUU7Jsw3HFdRPl-sW22-31" value="methods" style="text;html=1;align=center;verticalAlign=middle;resizable=0;points=[];autosize=1;strokeColor=none;fillColor=none;" parent="RgUU7Jsw3HFdRPl-sW22-1" vertex="1">
                    <mxGeometry x="437.5" y="260" width="60" height="20" as="geometry"/>
                </mxCell>
                <mxCell id="RgUU7Jsw3HFdRPl-sW22-32" value="" style="endArrow=none;html=1;entryX=0;entryY=0.5;entryDx=0;entryDy=0;" parent="RgUU7Jsw3HFdRPl-sW22-1" target="RgUU7Jsw3HFdRPl-sW22-31" edge="1">
                    <mxGeometry width="50" height="50" relative="1" as="geometry">
                        <mxPoint x="400.0000000000001" y="230" as="sourcePoint"/>
                        <mxPoint x="540" y="270" as="targetPoint"/>
                    </mxGeometry>
                </mxCell>
                <mxCell id="RgUU7Jsw3HFdRPl-sW22-21" value="requires" style="text;html=1;align=center;verticalAlign=middle;resizable=0;points=[];autosize=1;strokeColor=none;fillColor=none;" parent="RgUU7Jsw3HFdRPl-sW22-1" vertex="1">
                    <mxGeometry x="435" y="195" width="60" height="20" as="geometry"/>
                </mxCell>
                <mxCell id="RgUU7Jsw3HFdRPl-sW22-33" value="" style="endArrow=none;html=1;exitX=1;exitY=0.5;exitDx=0;exitDy=0;entryX=0;entryY=0.5;entryDx=0;entryDy=0;" parent="RgUU7Jsw3HFdRPl-sW22-1" source="RgUU7Jsw3HFdRPl-sW22-4" target="RgUU7Jsw3HFdRPl-sW22-21" edge="1">
                    <mxGeometry width="50" height="50" relative="1" as="geometry">
                        <mxPoint x="400.0000000000001" y="230" as="sourcePoint"/>
                        <mxPoint x="540" y="205" as="targetPoint"/>
                    </mxGeometry>
                </mxCell>
                <mxCell id="RgUU7Jsw3HFdRPl-sW22-40" value="Api Key, Api Secrect" style="rounded=0;whiteSpace=wrap;html=1;" parent="RgUU7Jsw3HFdRPl-sW22-1" vertex="1">
                    <mxGeometry x="540" y="330" width="180" height="30" as="geometry"/>
                </mxCell>
                <mxCell id="RgUU7Jsw3HFdRPl-sW22-41" value="" style="endArrow=classic;html=1;exitX=1;exitY=0.5;exitDx=0;exitDy=0;entryX=0;entryY=0.5;entryDx=0;entryDy=0;startArrow=none;" parent="RgUU7Jsw3HFdRPl-sW22-1" source="RgUU7Jsw3HFdRPl-sW22-46" target="RgUU7Jsw3HFdRPl-sW22-40" edge="1">
                    <mxGeometry width="50" height="50" relative="1" as="geometry">
                        <mxPoint x="410" y="220" as="sourcePoint"/>
                        <mxPoint x="480" y="165" as="targetPoint"/>
                    </mxGeometry>
                </mxCell>
                <mxCell id="RgUU7Jsw3HFdRPl-sW22-42" value="verify()" style="rounded=0;whiteSpace=wrap;html=1;" parent="RgUU7Jsw3HFdRPl-sW22-1" vertex="1">
                    <mxGeometry x="540" y="395" width="180" height="30" as="geometry"/>
                </mxCell>
                <mxCell id="RgUU7Jsw3HFdRPl-sW22-43" value="" style="endArrow=classic;html=1;entryX=0;entryY=0.5;entryDx=0;entryDy=0;startArrow=none;" parent="RgUU7Jsw3HFdRPl-sW22-1" source="RgUU7Jsw3HFdRPl-sW22-44" target="RgUU7Jsw3HFdRPl-sW22-42" edge="1">
                    <mxGeometry width="50" height="50" relative="1" as="geometry">
                        <mxPoint x="400" y="370" as="sourcePoint"/>
                        <mxPoint x="550" y="355" as="targetPoint"/>
                    </mxGeometry>
                </mxCell>
                <mxCell id="RgUU7Jsw3HFdRPl-sW22-44" value="methods" style="text;html=1;align=center;verticalAlign=middle;resizable=0;points=[];autosize=1;strokeColor=none;fillColor=none;" parent="RgUU7Jsw3HFdRPl-sW22-1" vertex="1">
                    <mxGeometry x="437.5" y="400" width="60" height="20" as="geometry"/>
                </mxCell>
                <mxCell id="RgUU7Jsw3HFdRPl-sW22-45" value="" style="endArrow=none;html=1;entryX=0;entryY=0.5;entryDx=0;entryDy=0;" parent="RgUU7Jsw3HFdRPl-sW22-1" target="RgUU7Jsw3HFdRPl-sW22-44" edge="1">
                    <mxGeometry width="50" height="50" relative="1" as="geometry">
                        <mxPoint x="400" y="370" as="sourcePoint"/>
                        <mxPoint x="540" y="410" as="targetPoint"/>
                    </mxGeometry>
                </mxCell>
                <mxCell id="RgUU7Jsw3HFdRPl-sW22-46" value="requires" style="text;html=1;align=center;verticalAlign=middle;resizable=0;points=[];autosize=1;strokeColor=none;fillColor=none;" parent="RgUU7Jsw3HFdRPl-sW22-1" vertex="1">
                    <mxGeometry x="435" y="335" width="60" height="20" as="geometry"/>
                </mxCell>
                <mxCell id="RgUU7Jsw3HFdRPl-sW22-47" value="" style="endArrow=none;html=1;exitX=1;exitY=0.5;exitDx=0;exitDy=0;entryX=0;entryY=0.5;entryDx=0;entryDy=0;" parent="RgUU7Jsw3HFdRPl-sW22-1" target="RgUU7Jsw3HFdRPl-sW22-46" edge="1">
                    <mxGeometry width="50" height="50" relative="1" as="geometry">
                        <mxPoint x="400" y="370" as="sourcePoint"/>
                        <mxPoint x="540" y="345" as="targetPoint"/>
                    </mxGeometry>
                </mxCell>
                <mxCell id="RgUU7Jsw3HFdRPl-sW22-48" value="Api Key, Api Secrect" style="rounded=0;whiteSpace=wrap;html=1;" parent="RgUU7Jsw3HFdRPl-sW22-1" vertex="1">
                    <mxGeometry x="540" y="460" width="180" height="30" as="geometry"/>
                </mxCell>
                <mxCell id="RgUU7Jsw3HFdRPl-sW22-49" value="" style="endArrow=classic;html=1;exitX=1;exitY=0.5;exitDx=0;exitDy=0;entryX=0;entryY=0.5;entryDx=0;entryDy=0;startArrow=none;" parent="RgUU7Jsw3HFdRPl-sW22-1" source="RgUU7Jsw3HFdRPl-sW22-54" target="RgUU7Jsw3HFdRPl-sW22-48" edge="1">
                    <mxGeometry width="50" height="50" relative="1" as="geometry">
                        <mxPoint x="410" y="350" as="sourcePoint"/>
                        <mxPoint x="480" y="295" as="targetPoint"/>
                    </mxGeometry>
                </mxCell>
                <mxCell id="RgUU7Jsw3HFdRPl-sW22-50" value="receive()" style="rounded=0;whiteSpace=wrap;html=1;" parent="RgUU7Jsw3HFdRPl-sW22-1" vertex="1">
                    <mxGeometry x="540" y="525" width="180" height="30" as="geometry"/>
                </mxCell>
                <mxCell id="RgUU7Jsw3HFdRPl-sW22-51" value="" style="endArrow=classic;html=1;entryX=0;entryY=0.5;entryDx=0;entryDy=0;startArrow=none;" parent="RgUU7Jsw3HFdRPl-sW22-1" source="RgUU7Jsw3HFdRPl-sW22-52" target="RgUU7Jsw3HFdRPl-sW22-50" edge="1">
                    <mxGeometry width="50" height="50" relative="1" as="geometry">
                        <mxPoint x="400" y="500" as="sourcePoint"/>
                        <mxPoint x="550" y="485" as="targetPoint"/>
                    </mxGeometry>
                </mxCell>
                <mxCell id="RgUU7Jsw3HFdRPl-sW22-52" value="methods" style="text;html=1;align=center;verticalAlign=middle;resizable=0;points=[];autosize=1;strokeColor=none;fillColor=none;" parent="RgUU7Jsw3HFdRPl-sW22-1" vertex="1">
                    <mxGeometry x="437.5" y="530" width="60" height="20" as="geometry"/>
                </mxCell>
                <mxCell id="RgUU7Jsw3HFdRPl-sW22-53" value="" style="endArrow=none;html=1;entryX=0;entryY=0.5;entryDx=0;entryDy=0;" parent="RgUU7Jsw3HFdRPl-sW22-1" target="RgUU7Jsw3HFdRPl-sW22-52" edge="1">
                    <mxGeometry width="50" height="50" relative="1" as="geometry">
                        <mxPoint x="400" y="500" as="sourcePoint"/>
                        <mxPoint x="540" y="540" as="targetPoint"/>
                    </mxGeometry>
                </mxCell>
                <mxCell id="RgUU7Jsw3HFdRPl-sW22-54" value="requires" style="text;html=1;align=center;verticalAlign=middle;resizable=0;points=[];autosize=1;strokeColor=none;fillColor=none;" parent="RgUU7Jsw3HFdRPl-sW22-1" vertex="1">
                    <mxGeometry x="435" y="465" width="60" height="20" as="geometry"/>
                </mxCell>
                <mxCell id="RgUU7Jsw3HFdRPl-sW22-55" value="" style="endArrow=none;html=1;exitX=1;exitY=0.5;exitDx=0;exitDy=0;entryX=0;entryY=0.5;entryDx=0;entryDy=0;" parent="RgUU7Jsw3HFdRPl-sW22-1" target="RgUU7Jsw3HFdRPl-sW22-54" edge="1">
                    <mxGeometry width="50" height="50" relative="1" as="geometry">
                        <mxPoint x="400" y="500" as="sourcePoint"/>
                        <mxPoint x="540" y="475" as="targetPoint"/>
                    </mxGeometry>
                </mxCell>
                <mxCell id="RgUU7Jsw3HFdRPl-sW22-56" value="Room Started" style="rounded=0;whiteSpace=wrap;html=1;" parent="RgUU7Jsw3HFdRPl-sW22-1" vertex="1">
                    <mxGeometry x="540" y="590" width="180" height="30" as="geometry"/>
                </mxCell>
                <mxCell id="RgUU7Jsw3HFdRPl-sW22-57" value="" style="endArrow=classic;html=1;entryX=0;entryY=0.5;entryDx=0;entryDy=0;startArrow=none;" parent="RgUU7Jsw3HFdRPl-sW22-1" source="RgUU7Jsw3HFdRPl-sW22-58" target="RgUU7Jsw3HFdRPl-sW22-56" edge="1">
                    <mxGeometry width="50" height="50" relative="1" as="geometry">
                        <mxPoint x="400" y="500" as="sourcePoint"/>
                        <mxPoint x="380" y="720" as="targetPoint"/>
                    </mxGeometry>
                </mxCell>
                <mxCell id="RgUU7Jsw3HFdRPl-sW22-58" value="events" style="text;html=1;align=center;verticalAlign=middle;resizable=0;points=[];autosize=1;strokeColor=none;fillColor=none;" parent="RgUU7Jsw3HFdRPl-sW22-1" vertex="1">
                    <mxGeometry x="440" y="595" width="50" height="20" as="geometry"/>
                </mxCell>
                <mxCell id="RgUU7Jsw3HFdRPl-sW22-59" value="" style="endArrow=none;html=1;entryX=0;entryY=0.5;entryDx=0;entryDy=0;" parent="RgUU7Jsw3HFdRPl-sW22-1" target="RgUU7Jsw3HFdRPl-sW22-58" edge="1">
                    <mxGeometry width="50" height="50" relative="1" as="geometry">
                        <mxPoint x="400" y="500" as="sourcePoint"/>
                        <mxPoint x="540" y="605" as="targetPoint"/>
                    </mxGeometry>
                </mxCell>
                <mxCell id="RgUU7Jsw3HFdRPl-sW22-60" value="Room Finished" style="rounded=0;whiteSpace=wrap;html=1;" parent="RgUU7Jsw3HFdRPl-sW22-1" vertex="1">
                    <mxGeometry x="540" y="640" width="180" height="30" as="geometry"/>
                </mxCell>
                <mxCell id="RgUU7Jsw3HFdRPl-sW22-61" value="Participant Joined" style="rounded=0;whiteSpace=wrap;html=1;" parent="RgUU7Jsw3HFdRPl-sW22-1" vertex="1">
                    <mxGeometry x="540" y="690" width="180" height="30" as="geometry"/>
                </mxCell>
                <mxCell id="RgUU7Jsw3HFdRPl-sW22-62" value="Participant Left" style="rounded=0;whiteSpace=wrap;html=1;" parent="RgUU7Jsw3HFdRPl-sW22-1" vertex="1">
                    <mxGeometry x="540" y="740" width="180" height="30" as="geometry"/>
                </mxCell>
                <mxCell id="RgUU7Jsw3HFdRPl-sW22-64" value="" style="endArrow=classic;html=1;entryX=0;entryY=0.5;entryDx=0;entryDy=0;startArrow=none;exitX=1;exitY=1;exitDx=0;exitDy=0;exitPerimeter=0;" parent="RgUU7Jsw3HFdRPl-sW22-1" source="RgUU7Jsw3HFdRPl-sW22-58" target="RgUU7Jsw3HFdRPl-sW22-60" edge="1">
                    <mxGeometry width="50" height="50" relative="1" as="geometry">
                        <mxPoint x="500" y="615" as="sourcePoint"/>
                        <mxPoint x="550" y="615" as="targetPoint"/>
                    </mxGeometry>
                </mxCell>
                <mxCell id="RgUU7Jsw3HFdRPl-sW22-65" value="" style="endArrow=classic;html=1;entryX=0;entryY=0.5;entryDx=0;entryDy=0;startArrow=none;exitX=0.904;exitY=1.26;exitDx=0;exitDy=0;exitPerimeter=0;" parent="RgUU7Jsw3HFdRPl-sW22-1" source="RgUU7Jsw3HFdRPl-sW22-58" target="RgUU7Jsw3HFdRPl-sW22-61" edge="1">
                    <mxGeometry width="50" height="50" relative="1" as="geometry">
                        <mxPoint x="510" y="625" as="sourcePoint"/>
                        <mxPoint x="560" y="625" as="targetPoint"/>
                    </mxGeometry>
                </mxCell>
                <mxCell id="RgUU7Jsw3HFdRPl-sW22-66" value="" style="endArrow=classic;html=1;entryX=0;entryY=0.5;entryDx=0;entryDy=0;startArrow=none;" parent="RgUU7Jsw3HFdRPl-sW22-1" target="RgUU7Jsw3HFdRPl-sW22-62" edge="1">
                    <mxGeometry width="50" height="50" relative="1" as="geometry">
                        <mxPoint x="480" y="620" as="sourcePoint"/>
                        <mxPoint x="550" y="715" as="targetPoint"/>
                    </mxGeometry>
                </mxCell>
            </root>
        </mxGraphModel>
    </diagram>
</mxfile>